<svg width="94" height="94" xmlns="http://www.w3.org/2000/svg" xml:space="preserve" version="1.1">

 <g>
  <title>Layer 1</title>
  <g display="none" class="st0" id="Refrences"/>
  <g id="Tittle"/>
  <g id="Icons">
   <g id="svg_1">
    <path id="svg_2" fill="#FFFFFF" d="m52.67,4.76c-3.31,-3.68 -6.65,-3.68 -9.96,0c-18.41,24.4 -15.93,46.98 -3.71,59.24c5.79,2.06 11.59,2.06 17.38,0c12.22,-12.26 14.71,-34.84 -3.71,-59.24z" class="st28"/>
    <path id="svg_3" fill="#D0E6FB" d="m56.39,64c-5.8,2.06 -11.59,2.06 -17.38,0c-3.59,-3.61 -6.34,-8.1 -7.97,-13.27c2.71,0.91 5.62,1.4 8.64,1.4c11.99,0 22.19,-7.69 25.93,-18.4c1.71,12.47 -2.1,23.12 -9.22,30.27z" class="st37"/>
    <path id="svg_4" stroke-miterlimit="10" stroke-linejoin="round" stroke-linecap="round" stroke="#000000" fill="none" d="m52.67,4.76c-3.31,-3.68 -6.65,-3.68 -9.96,0c-18.41,24.4 -15.93,46.98 -3.71,59.24c5.79,2.06 11.59,2.06 17.38,0c12.22,-12.26 14.71,-34.84 -3.71,-59.24z" class="st11"/>
    <path id="svg_5" stroke-miterlimit="10" stroke-linejoin="round" stroke-linecap="round" stroke="#000000" fill="#F12A00" d="m58.34,13.32c-1.61,-2.82 -3.49,-5.68 -5.67,-8.57c-3.31,-3.68 -6.65,-3.68 -9.96,0c-2.18,2.89 -4.05,5.75 -5.67,8.57c0,3.85 21.3,3.85 21.3,0z" class="st7"/>
    <path id="svg_6" stroke-miterlimit="10" stroke-linejoin="round" stroke-linecap="round" stroke="#000000" fill="#F12A00" d="m29.58,43.54c0.56,5.59 2.32,10.61 5,14.88c-4.23,1.97 -7.93,4.89 -10.84,8.46c-1.13,1.38 -3.36,0.73 -3.47,-1.03c-0.04,-0.56 -0.05,-1.11 -0.05,-1.68c0,-8.22 3.63,-15.6 9.36,-20.63z" class="st7"/>
    <path id="svg_7" stroke-miterlimit="10" stroke-linejoin="round" stroke-linecap="round" stroke="#000000" fill="#F12A00" d="m75.12,65.89c-0.11,1.75 -2.35,2.39 -3.47,1.02c-2.92,-3.58 -6.62,-6.49 -10.84,-8.48c2.68,-4.28 4.43,-9.3 5,-14.88c4.84,4.28 8.2,10.22 9.1,16.91c0.25,1.84 0.32,3.65 0.21,5.43z" class="st7"/>
    <path id="svg_8" stroke-miterlimit="10" stroke-linejoin="round" stroke-linecap="round" stroke="#000000" d="m34.58,58.43c-4.22,1.97 -7.92,4.88 -10.84,8.46c-1.12,1.39 -3.35,0.74 -3.46,-1.03c-0.04,-0.56 -0.05,-1.11 -0.05,-1.68c0,-0.6 0.02,-1.19 0.06,-1.78c0.13,1.74 2.34,2.37 3.45,0.99c2.56,-3.14 5.72,-5.77 9.31,-7.69c0.47,0.94 0.98,1.85 1.53,2.73z" class="st5"/>
    <path id="svg_9" stroke-miterlimit="10" stroke-linejoin="round" stroke-linecap="round" stroke="#000000" d="m75.12,65.89c-0.11,1.75 -2.35,2.39 -3.47,1.01c-2.91,-3.57 -6.61,-6.49 -10.84,-8.47c0.55,-0.88 1.06,-1.79 1.53,-2.73c3.6,1.94 6.76,4.57 9.31,7.7c1.11,1.37 3.32,0.75 3.46,-0.97c0.08,1.17 0.08,2.32 0.01,3.46z" class="st5"/>
    <circle id="svg_10" stroke-miterlimit="10" stroke-linejoin="round" stroke-linecap="round" stroke="#000000" fill="#6FBBF7" r="6.84" cy="32.33" cx="47.69" class="st38"/>
    <path id="svg_11" stroke-miterlimit="10" stroke-linejoin="round" stroke-linecap="round" stroke="#000000" d="m55.4,70.22c0,2.83 -15.42,2.83 -15.42,0l1.02,-5.6c4.46,1.23 8.92,1.23 13.39,0l1.01,5.6z" class="st5"/>
    <path id="svg_12" stroke-miterlimit="10" stroke-linejoin="round" stroke-linecap="round" stroke="#000000" fill="#F9CD6C" d="m53.06,81.38c0,2.97 -2.4,10.62 -5.37,10.62s-5.37,-7.65 -5.37,-10.62c0,-2.97 2.4,-5.37 5.37,-5.37s5.37,2.41 5.37,5.37z" class="st79"/>
    <g id="svg_13">
     <path id="svg_14" stroke-miterlimit="10" stroke-linejoin="round" stroke-linecap="round" stroke="#000000" fill="#D0E6FB" d="m27.6,22.26c0,3.43 -2.77,6.21 -6.21,6.21c-1.95,0 -3.7,-0.9 -4.82,-2.31c-1.37,1.42 -3.3,2.31 -5.43,2.31c-4.17,0 -7.56,-3.38 -7.56,-7.55s3.39,-7.55 7.56,-7.55c0.68,0 1.33,0.08 1.95,0.25c0.35,-2.56 2.54,-4.52 5.18,-4.52c2.9,0 5.24,2.35 5.24,5.24c0,0.69 -0.13,1.35 -0.39,1.95c2.59,0.76 4.48,3.14 4.48,5.97z" class="st24"/>
     <path id="svg_15" stroke-miterlimit="10" stroke-linejoin="round" stroke-linecap="round" stroke="#FFFFFF" fill="none" d="m9.79,15.42c-2.33,0.57 -4.08,2.58 -4.28,5.03" class="st75"/>
     <path id="svg_16" stroke-miterlimit="10" stroke-linejoin="round" stroke-linecap="round" stroke="#000000" fill="none" d="m21.71,18.3c1.11,-0.96 1.81,-2.37 1.81,-3.95c0,-2.9 -2.35,-5.24 -5.24,-5.24c-2.9,0 -5.24,2.35 -5.24,5.24c0,0.72 0.15,1.41 0.41,2.04" class="st11"/>
     <path id="svg_17" stroke-miterlimit="10" stroke-linejoin="round" stroke-linecap="round" stroke="#000000" fill="none" d="m15.38,23.77c0.68,2.69 3.11,4.69 6.01,4.69c2.06,0 3.87,-1.02 5,-2.57" class="st11"/>
    </g>
    <circle id="svg_18" stroke-miterlimit="10" stroke-linejoin="round" stroke-linecap="round" stroke="#000000" fill="none" r="2.05" cy="7.71" cx="9.23" class="st11"/>
    <circle id="svg_19" stroke-miterlimit="10" stroke-linejoin="round" stroke-linecap="round" stroke="#000000" fill="none" r="1.8" cy="12.37" cx="29.75" class="st11"/>
    <circle id="svg_20" stroke-miterlimit="10" stroke-linejoin="round" stroke-linecap="round" stroke="#000000" fill="none" r="1.41" cy="31.35" cx="15.68" class="st11"/>
    <g id="svg_21">
     <path id="svg_22" stroke-miterlimit="10" stroke-linejoin="round" stroke-linecap="round" stroke="#000000" fill="#D0E6FB" d="m67.94,12.89c0,-3.21 2.6,-5.81 5.81,-5.81c1.83,0 3.46,0.84 4.51,2.16c1.28,-1.33 3.09,-2.16 5.08,-2.16c3.9,0 7.07,3.16 7.07,7.06s-3.17,7.06 -7.07,7.06c-0.64,0 -1.24,-0.08 -1.83,-0.24c-0.33,2.39 -2.37,4.23 -4.85,4.23c-2.71,0 -4.91,-2.2 -4.91,-4.91c0,-0.64 0.12,-1.26 0.36,-1.83c-2.4,-0.69 -4.17,-2.92 -4.17,-5.56z" class="st24"/>
     <path id="svg_23" stroke-miterlimit="10" stroke-linejoin="round" stroke-linecap="round" stroke="#FFFFFF" fill="none" d="m84.6,19.28c2.18,-0.53 3.82,-2.42 4.01,-4.71" class="st75"/>
     <path id="svg_24" stroke-miterlimit="10" stroke-linejoin="round" stroke-linecap="round" stroke="#000000" fill="none" d="m73.45,16.59c-1.03,0.9 -1.69,2.22 -1.69,3.69c0,2.71 2.2,4.91 4.91,4.91c2.71,0 4.91,-2.2 4.91,-4.91c0,-0.68 -0.14,-1.32 -0.38,-1.9" class="st11"/>
     <path id="svg_25" stroke-miterlimit="10" stroke-linejoin="round" stroke-linecap="round" stroke="#000000" fill="none" d="m79.37,11.47c-0.63,-2.52 -2.91,-4.39 -5.63,-4.39c-1.93,0 -3.62,0.95 -4.68,2.4" class="st11"/>
    </g>
    <circle id="svg_26" stroke-miterlimit="10" stroke-linejoin="round" stroke-linecap="round" stroke="#000000" fill="none" r="1.91" cy="26.5" cx="85.13" class="st11"/>
    <circle id="svg_27" stroke-miterlimit="10" stroke-linejoin="round" stroke-linecap="round" stroke="#000000" fill="none" r="1.32" cy="4.38" cx="79.09" class="st11"/>
   </g>
  </g>
  <g id="Layer_4"/>
  <g>
   <path d="m78.18752,73.57229c-0.82843,0 -1.5,0.67157 -1.5,1.5l0,13c0,0.82843 0.67157,1.5 1.5,1.5l1,0c0.82843,0 1.5,-0.67157 1.5,-1.5l0,-13c0,-0.82843 -0.67157,-1.5 -1.5,-1.5l-1,0zm0,-1l1,0c1.38071,0 2.5,1.11929 2.5,2.5l0,13c0,1.38071 -1.11929,2.5 -2.5,2.5l-1,0c-1.38071,0 -2.5,-1.11929 -2.5,-2.5l0,-13c0,-1.38071 1.11929,-2.5 2.5,-2.5zm8,0l1,0c1.38071,0 2.5,1.11929 2.5,2.5l0,13c0,1.38071 -1.11929,2.5 -2.5,2.5l-1,0c-1.38071,0 -2.5,-1.11929 -2.5,-2.5l0,-13c0,-1.38071 1.11929,-2.5 2.5,-2.5zm0,1c-0.82843,0 -1.5,0.67157 -1.5,1.5l0,13c0,0.82843 0.67157,1.5 1.5,1.5l1,0c0.82843,0 1.5,-0.67157 1.5,-1.5l0,-13c0,-0.82843 -0.67157,-1.5 -1.5,-1.5l-1,0z"/>
  </g>
 </g>
</svg>