<svg id="icon" xmlns="http://www.w3.org/2000/svg" viewBox="0 0 512 512"><defs><style>.cls-1{fill:#fff;}.cls-2{fill:#ffca5f;}.cls-3{fill:#79c7e2;}.cls-4{fill:#f7899e;}.cls-5{fill:#376782;}</style></defs><title>horizontal chart</title><rect class="cls-1" x="149.52" y="329.65" width="325.77" height="77.26"/><rect class="cls-1" x="149.52" y="217.37" width="325.77" height="77.26"/><rect class="cls-1" x="149.52" y="105.09" width="325.77" height="77.26"/><rect class="cls-2" x="149.52" y="329.65" width="206.85" height="77.26"/><rect class="cls-3" x="149.52" y="217.37" width="131.84" height="77.26"/><rect class="cls-4" x="149.52" y="105.09" width="231.03" height="77.26"/><path class="cls-5" d="M475.29,324.18H149.52a5.47,5.47,0,0,0-5.47,5.47v77.26a5.47,5.47,0,0,0,5.47,5.47H475.29a5.47,5.47,0,0,0,5.47-5.47V329.65A5.47,5.47,0,0,0,475.29,324.18ZM155,335.12H350.9v66.32H155Zm314.83,66.32h-108V335.12h108Z"/><path class="cls-5" d="M475.29,211.9H149.52a5.47,5.47,0,0,0-5.47,5.47v77.26a5.47,5.47,0,0,0,5.47,5.47H475.29a5.47,5.47,0,0,0,5.47-5.47V217.37A5.47,5.47,0,0,0,475.29,211.9ZM155,222.84h120.9v66.32H155Zm314.83,66.32h-183V222.84h183Z"/><path class="cls-5" d="M475.29,99.62H149.52a5.47,5.47,0,0,0-5.47,5.47v77.26a5.47,5.47,0,0,0,5.47,5.47H475.29a5.47,5.47,0,0,0,5.47-5.47V105.09A5.47,5.47,0,0,0,475.29,99.62ZM155,110.56H375.08v66.32H155Zm314.83,66.32H386V110.56h83.8Z"/><path class="cls-5" d="M69.71,292.72A36.72,36.72,0,1,0,33,256,36.76,36.76,0,0,0,69.71,292.72Zm0-62.5A25.79,25.79,0,1,1,43.92,256,25.81,25.81,0,0,1,69.71,230.22Z"/><path class="cls-5" d="M69.71,105.59a5.47,5.47,0,0,0-4.88,3l-33,65.32a5.47,5.47,0,0,0,4.88,7.94h66a5.47,5.47,0,0,0,4.88-7.94l-33-65.32A5.47,5.47,0,0,0,69.71,105.59ZM45.6,170.91l24.11-47.72,24.11,47.72Z"/><path class="cls-5" d="M99,339a5.46,5.46,0,0,0-7.73,0L69.71,360.55,48.2,339a5.47,5.47,0,1,0-7.73,7.73L62,368.28,40.47,389.79a5.47,5.47,0,0,0,0,7.74,5.47,5.47,0,0,0,7.73,0L99,346.77A5.46,5.46,0,0,0,99,339Z"/><path class="cls-5" d="M86.57,377.41a5.47,5.47,0,1,0-7.74,7.73l12.39,12.39A5.47,5.47,0,0,0,99,389.79Z"/></svg>