<?xml version="1.0" ?><svg xmlns="http://www.w3.org/2000/svg" xmlns:xlink="http://www.w3.org/1999/xlink" version="1.1" viewBox="0 0 512 512" style="enable-background:new 0 0 512 512;" xml:space="preserve"><g id="_x31_9_x2C__Systematization_x2C__Organization_x2C__Structure_x2C__Management_x2C__Workflow_x2C__Process"><g><g><path style="fill:#9DCAFC;" d="M104.75,220.998c4.911,5.978,10.953,13.332,18.38,22.372c4.14,5.04,0.56,12.63-5.97,12.63H100.8     c0,73.69,51.34,135.38,120.2,151.25c-1.843,10.567,6.008-34.439-10.68,61.22C146.361,454.788,94.67,412.584,68.8,366.36     C49.69,334.02,38.72,296.29,38.72,256H22.35c-6.53,0-10.11-7.59-5.97-12.63c2.902-3.532-7.503,9.132,27.152-33.048l10.718-23.947     h46.125L104.75,220.998z"/><path style="fill:#FFFFFF;" d="M195.39,456.2c-8.79-7.23-8.79-20.69,0.01-27.92c2.203-1.81-11.939,9.809,47.97-39.41     c5.04-4.14,12.63-0.56,12.63,5.97v16.36c73.69,0,135.38-51.34,151.25-120.2c10.567,1.843-34.439-6.008,61.22,10.68     c-4.95,23.14-13.58,44.91-25.27,64.68c-17.403,32.582-43.297,57.958-76.84,76.84c-32.34,19.11-70.07,30.08-110.36,30.08v16.37     c0,6.53-7.59,10.11-12.63,5.97C239.472,492.418,255.296,505.419,195.39,456.2z"/><path style="fill:#9DCAFC;" d="M456.2,316.61c-7.23,8.79-20.69,8.79-27.92-0.01c-1.81-2.203,9.809,11.939-39.41-47.97     c-4.14-5.04-0.56-12.63,5.97-12.63h16.36c0-73.69-51.34-135.38-120.2-151.25c1.843-10.567-6.008,34.439,10.68-61.22     c23.14,4.95,44.91,13.58,64.68,25.27c34.296,19.615,59.797,45.306,76.84,76.84c19.11,32.34,30.08,70.07,30.08,110.36h16.37     c6.53,0,10.11,7.59,5.97,12.63C492.418,272.528,505.419,256.704,456.2,316.61z"/><path style="fill:#FFFFFF;" d="M316.6,83.72c8.8-7.23,8.8-20.69,0.01-27.92c-42.446-34.873-46.872-38.51-47.233-38.807     c0,0-0.001-0.001-0.003-0.003c-0.005-0.005-0.01-0.008-0.014-0.011c0.001,0.001,0.002,0.001,0.002,0.002     c-0.003-0.003-0.007-0.006-0.012-0.01c-0.003-0.002-0.003-0.002,0,0c-0.061-0.05-0.242-0.199-0.719-0.591     c-5.04-4.14-12.63-0.56-12.63,5.97v16.37c-40.29,0-78.02,10.97-110.36,30.08c-32.083,21.184-58.117,46.509-76.84,76.84     c-11.69,19.77-20.32,41.54-25.27,64.68l0.003,0c3.585-4.364,7.653-9.314,12.267-14.931c7.23-8.79,20.69-8.79,27.92,0.01     c-0.001-0.002-0.002-0.002-0.003-0.004c-0.006-0.008-0.006-0.007,0,0c0.002,0.003,0.005,0.006,0.01,0.012     c0.007,0.009,0.013,0.016,0.02,0.025c0.006,0.007,0.011,0.014,0.018,0.022c0.028,0.034,0.052,0.064,0.072,0.088     c0.005,0.006,0.01,0.012,0.015,0.018c0,0.001,0.001,0.002,0.002,0.003c0.01,0.011,0.016,0.02,0.024,0.029     c0.03,0.036,0.052,0.064,0.057,0.069c0.894,1.089,4.99,6.074,20.815,25.336C120.621,152.139,182.311,100.8,256,100.8v16.36     c0,6.53,7.59,10.11,12.63,5.97c38.171-31.36,46.278-38.02,47.707-39.194c-0.002,0.002,0.003-0.002,0.012-0.01     c0,0,0.001-0.001,0.001-0.001c0,0-0.001,0.001-0.001,0.001c0.017-0.014,0.057-0.046,0.126-0.103     c-0.041,0.033-0.081,0.066-0.108,0.088c0.059-0.048,0.104-0.085,0.139-0.114c0.002-0.001,0.004-0.003,0.005-0.005     c0.003-0.002,0.005-0.004,0.008-0.006c0,0-0.001,0.001-0.001,0.001C316.543,83.767,316.569,83.745,316.6,83.72z"/><path style="fill:#FFFFFF;" d="M436,6c38.66,0,70,31.34,70,70c0,38.578-31.251,70-70,70c-41.214,0-73.858-35.552-69.64-77.2h0.01     C369.97,33.52,399.77,6,436,6z"/><path style="fill:#9DCAFC;" d="M443.2,366.37c35.28,3.6,62.8,33.4,62.8,69.63c0,38.66-31.34,70-70,70     c-36.23,0-66.03-27.52-69.64-62.8c-4.486-44.295,32.632-81.317,76.84-76.84V366.37z"/><path style="fill:#9DCAFC;" d="M361,241v30l-20.44,2.04c-2.23,11.16-6.63,21.54-12.72,30.7l13.01,15.9l-21.21,21.21l-15.9-13.01     c-9.16,6.09-19.54,10.49-30.7,12.72L271,361h-30l-2.04-20.44c-11.16-2.23-21.54-6.63-30.7-12.72l-15.9,13.01l-21.21-21.21     l13.01-15.9c-6.09-9.16-10.49-19.54-12.72-30.7L151,271v-30l20.44-2.04c2.23-11.16,6.63-21.54,12.72-30.7l-13.01-15.9     l21.21-21.21l15.9,13.01c9.16-6.09,19.54-10.49,30.7-12.72L241,151h30l2.04,20.44c11.16,2.23,21.54,6.63,30.7,12.72l15.9-13.01     l21.21,21.21l-13.01,15.9c6.09,9.16,10.49,19.54,12.72,30.7L361,241z M302,256c0-25.401-20.599-46-46-46s-46,20.599-46,46     s20.599,46,46,46S302,281.401,302,256z"/><path style="fill:#9DCAFC;" d="M145.64,68.8c4.471,44.151-32.492,81.331-76.84,76.84v-0.01C33.52,142.03,6,112.23,6,76     C6,37.34,37.34,6,76,6C112.23,6,142.03,33.52,145.64,68.8z"/><path style="fill:#FFFFFF;" d="M145.64,443.2h-0.01c-3.6,35.28-33.4,62.8-69.63,62.8c-38.66,0-70-31.34-70-70     c0-38.578,31.251-70,70-70C117.214,366,149.857,401.552,145.64,443.2z"/><path style="fill:#9DCAFC;" d="M83.874,195.587c0.019,0.023,0.039,0.047,0.062,0.075c-0.001-0.002-0.019-0.023-0.057-0.069     C83.877,195.591,83.875,195.589,83.874,195.587z"/><path style="fill:#9DCAFC;" d="M316.52,83.786c0.042-0.034,0.076-0.062,0.086-0.071C316.598,83.722,316.572,83.743,316.52,83.786     z"/><path style="fill:#9DCAFC;" d="M83.735,195.418c0.01,0.012,0.023,0.029,0.041,0.05c-0.003-0.004-0.007-0.009-0.01-0.013     c-0.006-0.007-0.012-0.015-0.018-0.022C83.743,195.428,83.738,195.422,83.735,195.418z"/><path style="fill:#FFFFFF;" d="M256,206c27.61,0,50,22.39,50,50s-22.39,50-50,50s-50-22.39-50-50S228.39,206,256,206z      M283.27,256c0-15.06-12.21-27.27-27.27-27.27s-27.27,12.21-27.27,27.27s12.21,27.27,27.27,27.27S283.27,271.06,283.27,256z"/><path style="fill:#4269A7;" d="M421,96c-2.762,0-5,2.238-5,5s2.238,5,5,5h10v5c0,2.762,2.238,5,5,5s5-2.238,5-5v-5h10     c2.762,0,5-2.238,5-5V76c0-2.762-2.238-5-5-5h-25V56h25c2.762,0,5-2.238,5-5s-2.238-5-5-5h-10v-5c0-2.762-2.238-5-5-5     s-5,2.238-5,5v5h-10c-2.762,0-5,2.238-5,5v25c0,2.762,2.238,5,5,5h25v15H421z"/><path style="fill:#4269A7;" d="M91,416c2.762,0,5-2.238,5-5s-2.238-5-5-5H81v-5c0-2.762-2.238-5-5-5s-5,2.238-5,5v5H61     c-2.762,0-5,2.238-5,5v25c0,2.762,2.238,5,5,5h25v15H61c-2.762,0-5,2.238-5,5s2.238,5,5,5h10v5c0,2.762,2.238,5,5,5s5-2.238,5-5     v-5h10c2.762,0,5-2.238,5-5v-25c0-2.762-2.238-5-5-5H66v-15H91z"/><path style="fill:#4269A7;" d="M256,223.728c-17.795,0-32.272,14.478-32.272,32.272s14.478,32.272,32.272,32.272     s32.272-14.478,32.272-32.272S273.795,223.728,256,223.728z M256,278.272c-12.281,0-22.272-9.991-22.272-22.272     s9.991-22.272,22.272-22.272s22.272,9.991,22.272,22.272S268.281,278.272,256,278.272z"/><path style="fill:#4269A7;" d="M311,256c0-30.327-24.673-55-55-55s-55,24.673-55,55s24.673,55,55,55S311,286.327,311,256z      M256,301c-24.813,0-45-20.187-45-45s20.187-45,45-45s45,20.187,45,45S280.813,301,256,301z"/><path style="fill:#4269A7;" d="M275.976,361.498l1.684-16.838c9.086-2.208,17.705-5.781,25.71-10.658l13.104,10.721     c1.988,1.627,4.886,1.482,6.701-0.335l21.213-21.213c1.816-1.816,1.961-4.713,0.335-6.701l-10.721-13.104     c4.877-8.005,8.45-16.624,10.658-25.71l16.838-1.684C364.054,275.72,366,273.568,366,271v-30c0-2.568-1.946-4.72-4.502-4.976     l-16.838-1.684c-2.208-9.085-5.782-17.706-10.658-25.711l10.721-13.104c1.626-1.988,1.481-4.885-0.335-6.701l-21.213-21.213     c-1.816-1.817-4.714-1.963-6.701-0.335l-13.104,10.721c-8.005-4.877-16.624-8.45-25.71-10.658l-1.684-16.838     C275.72,147.946,273.568,146,271,146h-30c-2.568,0-4.72,1.946-4.976,4.502l-1.684,16.838c-9.086,2.208-17.705,5.781-25.71,10.658     l-13.104-10.721c-1.988-1.627-4.886-1.482-6.701,0.335l-21.213,21.213c-1.816,1.816-1.961,4.713-0.335,6.701l10.721,13.104     c-4.876,8.005-8.45,16.626-10.658,25.711l-16.838,1.684C147.946,236.28,146,238.432,146,241v30c0,2.568,1.946,4.72,4.502,4.976     l16.838,1.684c2.208,9.086,5.781,17.705,10.658,25.71l-10.721,13.104c-1.626,1.988-1.481,4.885,0.335,6.701l21.213,21.213     c1.814,1.817,4.712,1.961,6.701,0.335l13.104-10.721c8.005,4.877,16.624,8.45,25.71,10.658l1.684,16.838     C236.28,364.054,238.432,366,241,366h30C273.568,366,275.72,364.054,275.976,361.498z M268.068,340.064L266.475,356h-20.949     l-1.594-15.936c-0.219-2.186-1.839-3.973-3.993-4.404c-10.355-2.076-20.08-6.107-28.903-11.981     c-1.827-1.217-4.236-1.098-5.937,0.292l-12.402,10.146l-14.813-14.813l10.146-12.402c1.391-1.7,1.509-4.108,0.292-5.937     c-5.874-8.823-9.905-18.548-11.981-28.903c-0.432-2.154-2.219-3.774-4.404-3.993L156,266.475v-20.949l15.936-1.594     c2.186-0.219,3.973-1.839,4.404-3.993c2.076-10.355,6.107-20.08,11.981-28.904c1.217-1.828,1.099-4.236-0.292-5.937     l-10.146-12.401l14.813-14.813l12.402,10.146c1.699,1.39,4.107,1.509,5.937,0.292c8.823-5.874,18.548-9.905,28.903-11.981     c2.154-0.432,3.774-2.219,3.993-4.404L245.525,156h20.949l1.594,15.936c0.219,2.186,1.839,3.973,3.993,4.404     c10.355,2.076,20.08,6.107,28.903,11.981c1.829,1.218,4.237,1.1,5.937-0.292l12.402-10.146l14.813,14.813l-10.146,12.401     c-1.391,1.7-1.509,4.108-0.292,5.937c5.874,8.824,9.905,18.549,11.981,28.904c0.432,2.154,2.219,3.774,4.404,3.993L356,245.525     v20.949l-15.936,1.594c-2.186,0.219-3.973,1.839-4.404,3.993c-2.076,10.355-6.107,20.08-11.981,28.903     c-1.217,1.828-1.099,4.236,0.292,5.937l10.146,12.402l-14.813,14.813l-12.402-10.146c-1.7-1.391-4.108-1.51-5.937-0.292     c-8.823,5.874-18.548,9.905-28.903,11.981C269.907,336.092,268.287,337.879,268.068,340.064z"/><path style="fill:#4269A7;" d="M451.124,362.533c10.075-18.409,17.45-38.081,21.959-58.595l26.4-32.13     c6.829-8.309,0.909-20.808-9.834-20.808h-11.425c-0.798-35.599-10.109-70.457-27.099-101.533C485.255,142.45,511,112.176,511,76     c0-41.355-33.645-75-75-75c-36.176,0-66.451,25.745-73.467,59.876c-18.409-10.075-38.081-17.45-58.595-21.959l-32.13-26.4     C263.514,5.702,251,11.588,251,22.351v11.425c-35.599,0.798-70.457,10.109-101.533,27.099C142.45,26.745,112.176,1,76,1     C34.645,1,1,34.645,1,76c0,36.176,25.746,66.451,59.876,73.467c-10.075,18.409-17.45,38.081-21.959,58.595l-26.4,32.13     C5.688,248.502,11.607,261,22.351,261h11.425c0.798,35.599,10.109,70.457,27.099,101.533C26.745,369.55,1,399.824,1,436     c0,41.355,33.645,75,75,75c36.176,0,66.451-25.746,73.467-59.876c18.409,10.075,38.081,17.45,58.595,21.959l32.13,26.4     c8.299,6.82,20.808,0.904,20.808-9.834v-11.425c35.599-0.798,70.457-10.109,101.533-27.099C369.55,485.255,399.824,511,436,511     c41.355,0,75-33.645,75-75C511,399.824,485.254,369.549,451.124,362.533z M436,11c35.841,0,65,29.159,65,65s-29.159,65-65,65     s-65-29.159-65-65S400.159,11,436,11z M436,151c1.493,0,2.973-0.056,4.445-0.143C458.663,182.753,468.28,219.036,468.28,256     c0,2.762,2.238,5,5,5h16.369c2.305,0,3.576,2.672,2.107,4.459l-39.417,47.973c-5.234,6.37-14.975,6.357-20.199-0.001     l-39.409-47.972c-1.467-1.787-0.198-4.459,2.107-4.459H411.2c2.762,0,5-2.238,5-5c0-70.937-46.689-133.368-114.473-153.585     l18.052-14.829c10.222-8.399,11.276-23.611,2.434-33.329c13.505,4.426,26.53,10.211,38.931,17.298     C358.589,115.053,393.319,151,436,151z M240.193,385.005l-20.449,16.799c-65.6-16.219-111.688-73.379-113.864-140.804h11.28     c10.755,0,16.654-12.506,9.834-20.807l-16.799-20.449c16.219-65.6,73.379-111.688,140.804-113.864v11.28     c0,10.757,12.506,16.652,20.807,9.834l20.449-16.799c65.6,16.219,111.688,73.379,113.864,140.804h-11.28     c-10.755,0-16.654,12.506-9.834,20.807l16.799,20.449c-16.219,65.6-73.379,111.688-140.804,113.864v-11.28     C261,384.083,248.494,378.185,240.193,385.005z M11,76c0-35.841,29.159-65,65-65s65,29.159,65,65s-29.159,65-65,65     S11,111.841,11,76z M76,151c42.722,0,77.409-35.99,74.857-79.445C182.753,53.337,219.036,43.72,256,43.72c2.762,0,5-2.238,5-5     V22.351c0-2.313,2.679-3.57,4.459-2.107l47.973,39.417c6.37,5.234,6.357,14.975-0.001,20.199l-47.972,39.409     c-1.784,1.465-4.459,0.201-4.459-2.107V100.8c0-2.762-2.238-5-5-5c-70.937,0-133.368,46.689-153.584,114.473l-14.83-18.052     c-8.399-10.223-23.612-11.275-33.329-2.434c4.426-13.505,10.211-26.53,17.298-38.931C73.027,150.944,74.507,151,76,151z M76,501     c-35.841,0-65-29.159-65-65s29.159-65,65-65s65,29.159,65,65S111.841,501,76,501z M71.555,361.143     C53.337,329.247,43.72,292.964,43.72,256c0-2.762-2.238-5-5-5H22.351c-2.305,0-3.576-2.672-2.107-4.459     c35.173-42.809-8.241,10.019,39.417-47.973c5.234-6.37,14.975-6.357,20.199,0.001l39.409,47.972     c1.467,1.787,0.198,4.459-2.107,4.459H100.8c-2.762,0-5,2.238-5,5c0,70.937,46.689,133.368,114.473,153.585l-18.052,14.829     c-10.222,8.399-11.276,23.611-2.434,33.329c-13.505-4.426-26.53-10.211-38.931-17.298     C153.477,395.832,116.62,358.496,71.555,361.143z M256,468.28c-2.762,0-5,2.238-5,5v16.369c0,2.313-2.678,3.569-4.459,2.107     l-47.973-39.417c-6.37-5.234-6.357-14.975,0.001-20.199c1.248-1.025-8.827,7.256,47.972-39.409     c1.778-1.458,4.459-0.21,4.459,2.107V411.2c0,2.762,2.238,5,5,5c70.937,0,133.368-46.689,153.584-114.473l14.83,18.052     c8.399,10.223,23.612,11.275,33.329,2.434c-4.426,13.505-10.211,26.53-17.298,38.931c-44.932-2.638-81.93,34.553-79.302,79.302     C329.247,458.663,292.964,468.28,256,468.28z M436,501c-35.841,0-65-29.159-65-65s29.159-65,65-65s65,29.159,65,65     S471.841,501,436,501z"/><path style="fill:#4269A7;" d="M86,111c2.762,0,5-2.238,5-5s-2.238-5-5-5h-5V46c0-3.696-3.898-6.141-7.236-4.472l-10,5     c-2.47,1.234-3.471,4.238-2.235,6.708c1.234,2.47,4.237,3.473,6.708,2.235L71,54.09V101h-5c-2.762,0-5,2.238-5,5s2.238,5,5,5H86z     "/><path style="fill:#4269A7;" d="M454.875,408.715c-8.151-8.153-21.417-8.153-29.57,0l-8.75,8.75c-1.953,1.952-1.953,5.118,0,7.07     c1.951,1.953,5.119,1.953,7.07,0l8.75-8.749c4.256-4.254,11.176-4.254,15.43,0c4.263,4.263,4.264,11.163,0,15.429l-31.25,31.25     c-3.14,3.138-0.915,8.535,3.535,8.535h35c2.762,0,5-2.238,5-5s-2.238-5-5-5h-22.929l22.714-22.714     C463.046,430.117,463.05,416.886,454.875,408.715z"/></g></g></g><g id="Layer_1"/></svg>